<?xml version="1.0" encoding="UTF-8"?><svg version="1.1" viewBox="0 0 64 64" xmlns="http://www.w3.org/2000/svg" xmlns:xlink="http://www.w3.org/1999/xlink"><!--Generated by IJSVG (https://github.com/iconjar/IJSVG)--><path d="M45.6174,28.4542l-11.6074,-11.6128v35.1794v0c0,1.10457 -0.895431,2 -2,2c-1.10457,0 -2,-0.895431 -2,-2v-35.1454l-11.5726,11.5788l-6.05489e-09,5.89377e-09c-0.791865,0.770793 -2.05865,0.753711 -2.82944,-0.0381534c-0.756347,-0.777023 -0.756106,-2.01512 0.000542702,-2.79185l15.0044,-15.012l-3.12048e-08,3.12197e-08c0.780863,-0.781234 2.04719,-0.781536 2.82843,-0.000673018c0.000224372,0.000224265 0.00044869,0.000448584 0.000672955,0.000672955l15.0045,15.012l4.69016e-08,4.7862e-08c0.773442,0.789278 0.760604,2.05611 -0.0286742,2.82955c-0.777815,0.762209 -2.02237,0.762405 -2.80043,0.000441221Z" fill="#000" fill-rule="evenodd"></path></svg>