<?xml version="1.0" encoding="UTF-8"?><svg version="1.1" viewBox="0 0 64 64" xmlns="http://www.w3.org/2000/svg" xmlns:xlink="http://www.w3.org/1999/xlink"><!--Generated by IJSVG (https://github.com/iconjar/IJSVG)--><path d="M49.01,20.0208h-34l-8.74228e-08,-3.55271e-15c-1.10457,-4.82823e-08 -2,-0.895431 -2,-2c0,0 0,0 0,0v-2l2.84217e-14,3.01992e-07c-1.66785e-07,-1.10457 0.89543,-2 2,-2h6c0,-2.9314 0.6154,-4.6426 1.9846,-6.0121c1.3692,-1.3695 3.076,-1.9854 6.0063,-1.9854h6.0191c2.93,0 4.6371,0.6157 6.0061,1.9854c1.369,1.3697 1.9839,3.0807 1.9839,6.0121h6h-8.74228e-08c1.10457,-4.82823e-08 2,0.89543 2,2c0,0 0,7.10543e-15 0,7.10543e-15v2v8.74228e-08c0,1.10457 -0.895431,2 -2,2c-2.70922e-08,0 -6.03306e-08,0 -8.74228e-08,-3.55271e-15Zm-10.9923,-9.006l1.88191e-07,1.73137e-07c-0.811955,-0.747006 -1.90599,-1.10867 -3.0032,-0.9928h-6.0087l1.3044e-07,1.37692e-08c-1.09714,-0.115814 -2.19109,0.245849 -3.003,0.9928l2.25365e-07,-2.45429e-07c-0.746739,0.813217 -1.10815,1.90804 -0.9923,3.006h14l-6.53555e-09,6.19426e-08c0.115846,-1.09796 -0.245562,-2.19278 -0.9923,-3.006Zm8.9825,11.006l-2.82256e-08,6.08722e-11c0.553057,-0.00119282 1.00236,0.446181 1.00356,0.999238c4.54398e-05,0.0210683 -0.000574014,0.0421328 -0.00185744,0.0631621l-1.7637,28.1247l2.42948e-08,-3.76328e-07c-0.102258,1.58399 -1.41822,2.81562 -3.0055,2.8129h-22.4472l-1.28845e-07,2.16495e-10c-1.58726,0.00266694 -2.90319,-1.22894 -3.0055,-2.8129l-1.7643,-28.1247l-1.90823e-08,-3.14869e-07c-0.0334693,-0.552266 0.387098,-1.0271 0.939364,-1.06057c0.0208213,-0.00126185 0.041677,-0.00187308 0.0625365,-0.00183279Z" fill="#000" fill-rule="evenodd"></path></svg>