<?xml version="1.0" encoding="UTF-8"?><svg version="1.1" viewBox="0 0 64 64" xmlns="http://www.w3.org/2000/svg" xmlns:xlink="http://www.w3.org/1999/xlink"><!--Generated by IJSVG (https://github.com/iconjar/IJSVG)--><path d="M48.01,49.0208h-22h-8.74228e-08c-1.10457,-4.82823e-08 -2,-0.895431 -2,-2c4.82823e-08,-1.10457 0.895431,-2 2,-2h22h-8.74228e-08c1.10457,-4.82823e-08 2,0.89543 2,2c4.82823e-08,1.10457 -0.89543,2 -2,2Zm0,-10h-22h-8.74228e-08c-1.10457,-4.82823e-08 -2,-0.895431 -2,-2c4.82823e-08,-1.10457 0.895431,-2 2,-2h22h-8.74228e-08c1.10457,-4.82823e-08 2,0.89543 2,2c4.82823e-08,1.10457 -0.89543,2 -2,2Zm0,-10h-22l-8.74228e-08,-3.55271e-15c-1.10457,-4.82823e-08 -2,-0.895431 -2,-2c0,0 0,0 0,0v0l2.13163e-14,3.01992e-07c-1.66785e-07,-1.10457 0.89543,-2 2,-2h22l-8.74228e-08,3.55271e-15c1.10457,-4.82823e-08 2,0.89543 2,2v0l1.42109e-14,1.74846e-07c0,1.10457 -0.89543,2 -2,2Zm0,-10h-22l-8.74228e-08,-3.55271e-15c-1.10457,-4.82823e-08 -2,-0.895431 -2,-2c4.82823e-08,-1.10457 0.895431,-2 2,-2h22l9.13912e-08,7.10543e-15c1.10457,8.33927e-08 2,0.895431 2,2c-8.33927e-08,1.10457 -0.895431,2 -2,2Zm-34,7l2.30926e-14,3.01992e-07c-1.66785e-07,-1.10457 0.89543,-2 2,-2h2l-8.74228e-08,3.55271e-15c1.10457,-4.82823e-08 2,0.89543 2,2v2v0c0,1.10457 -0.895431,2 -2,2h-2l-8.74228e-08,-3.55271e-15c-1.10457,-4.82823e-08 -2,-0.895431 -2,-2c0,0 0,0 0,0Zm2,18h2h-8.74228e-08c1.10457,-4.82823e-08 2,0.89543 2,2v2v0c0,1.10457 -0.895431,2 -2,2h-2h-8.74228e-08c-1.10457,-4.82823e-08 -2,-0.895431 -2,-2c0,0 0,-7.10543e-15 0,-7.10543e-15v-2l1.42109e-14,-1.27146e-07c1.66785e-07,-1.10457 0.895431,-2 2,-2Zm-2,-8l2.30926e-14,3.01992e-07c-1.66785e-07,-1.10457 0.89543,-2 2,-2h2h-8.74228e-08c1.10457,-4.82823e-08 2,0.89543 2,2v2v0c0,1.10457 -0.895431,2 -2,2h-2h-8.74228e-08c-1.10457,-4.82823e-08 -2,-0.895431 -2,-2c0,0 0,-7.10543e-15 0,-7.10543e-15Zm6,-18v0c0,1.10457 -0.895431,2 -2,2h-2l-8.74228e-08,-3.55271e-15c-1.10457,-4.82823e-08 -2,-0.895431 -2,-2c0,0 0,0 0,0v-2l2.13163e-14,3.01992e-07c-1.66785e-07,-1.10457 0.89543,-2 2,-2h2l-8.74228e-08,3.55271e-15c1.10457,-4.82823e-08 2,0.89543 2,2c0,0 0,3.55271e-15 0,3.55271e-15Z" fill="#000" fill-rule="evenodd"></path></svg>