<?xml version="1.0" encoding="UTF-8"?><svg version="1.1" viewBox="0 0 64 64" xmlns="http://www.w3.org/2000/svg" xmlns:xlink="http://www.w3.org/1999/xlink"><!--Generated by IJSVG (https://github.com/iconjar/IJSVG)--><path d="M12.9987,19.3057l16.9986,10.3169v-8.5232l-9.0939e-09,-2.63453e-07c-0.038042,-1.10209 0.82454,-2.02635 1.92663,-2.06439c0.376623,-0.0130003 0.749236,0.0808466 1.07477,0.270693l17.0113,10.3243v-8.61l1.42109e-14,3.01992e-07c-1.66785e-07,-1.10457 0.89543,-2 2,-2c1.10457,-1.66785e-07 2,0.89543 2,2c0,0 0,0 0,0v22v0c0,1.10457 -0.895431,2 -2,2c-1.10457,0 -2,-0.895431 -2,-2v-8.6106l-17.0113,10.3247l1.86631e-07,-1.0882e-07c-0.952685,0.555486 -2.1753,0.233493 -2.73078,-0.719191c-0.18984,-0.325584 -0.28366,-0.698247 -0.270616,-1.07491v-8.5226l-16.9986,10.3167l6.97667e-08,-4.06877e-08c-0.952586,0.555545 -2.17517,0.233679 -2.73071,-0.718908c-0.189922,-0.325657 -0.283769,-0.698428 -0.270687,-1.07519v-21.8406l-9.15147e-09,-2.65121e-07c-0.038042,-1.10209 0.82454,-2.02635 1.92663,-2.06439c0.376623,-0.0130003 0.749236,0.0808466 1.07477,0.270693Z" fill="#000" fill-rule="evenodd"></path></svg>